<svg width="30" height="30" viewBox="0 0 30 30" fill="none" xmlns="http://www.w3.org/2000/svg">
<path fill-rule="evenodd" clip-rule="evenodd" d="M9.375 1.5C9.99632 1.5 10.5 2.00368 10.5 2.625V3.01007C11.0894 2.99999 11.7451 2.99999 12.4761 3H17.5239C18.2549 2.99999 18.9106 2.99999 19.5 3.01007V2.625C19.5 2.00368 20.0037 1.5 20.625 1.5C21.2463 1.5 21.75 2.00368 21.75 2.625V3.15857C22.3923 3.25542 22.9735 3.41677 23.5192 3.69483C24.7187 4.30603 25.694 5.28128 26.3052 6.48081C26.6855 7.22736 26.8475 8.04018 26.9247 8.9852C27 9.90659 27 11.0474 27 12.4761V17.5239C27 18.9526 27 20.0934 26.9247 21.0148C26.8475 21.9598 26.6855 22.7726 26.3052 23.5192C25.694 24.7187 24.7187 25.694 23.5192 26.3052C22.7726 26.6856 21.9598 26.8475 21.0148 26.9247C20.0934 27 18.9526 27 17.5239 27H12.4761C11.0474 27 9.90659 27 8.9852 26.9247C8.04018 26.8475 7.22736 26.6856 6.48081 26.3052C5.28128 25.694 4.30603 24.7187 3.69483 23.5192C3.31445 22.7726 3.15248 21.9598 3.07527 21.0148C2.99998 20.0934 2.99999 18.9526 3 17.5239V12.4761C2.99999 11.0474 2.99998 9.90659 3.07527 8.9852C3.15248 8.04018 3.31445 7.22736 3.69483 6.48081C4.30603 5.28128 5.28128 4.30603 6.48081 3.69483C7.02654 3.41677 7.60769 3.25542 8.25 3.15857V2.625C8.25 2.00368 8.75368 1.5 9.375 1.5ZM8.25 5.44437C7.94545 5.51028 7.70788 5.59485 7.50229 5.6996C6.72612 6.09508 6.09508 6.72612 5.6996 7.50229C5.50777 7.87878 5.38363 8.36254 5.31779 9.16842C5.2866 9.55023 5.26975 9.982 5.26066 10.485H24.7393C24.7302 9.982 24.7134 9.55023 24.6822 9.16842C24.6164 8.36254 24.4922 7.87878 24.3004 7.50229C23.9049 6.72612 23.2739 6.09508 22.4977 5.6996C22.2921 5.59485 22.0545 5.51028 21.75 5.44437V5.625C21.75 6.24632 21.2463 6.75 20.625 6.75C20.0037 6.75 19.5 6.24632 19.5 5.625V5.26039C18.9274 5.25025 18.2628 5.25 17.475 5.25H12.525C11.7372 5.25 11.0726 5.25025 10.5 5.26039V5.625C10.5 6.24632 9.99632 6.75 9.375 6.75C8.75368 6.75 8.25 6.24632 8.25 5.625V5.44437ZM24.75 12.735H5.25V17.475C5.25 18.9637 5.25088 20.0126 5.31779 20.8316C5.38363 21.6375 5.50777 22.1212 5.6996 22.4977C6.09508 23.2739 6.72612 23.9049 7.50229 24.3004C7.87878 24.4922 8.36255 24.6164 9.16842 24.6822C9.98743 24.7491 11.0363 24.75 12.525 24.75H17.475C18.9637 24.75 20.0126 24.7491 20.8316 24.6822C21.6375 24.6164 22.1212 24.4922 22.4977 24.3004C23.2739 23.9049 23.9049 23.2739 24.3004 22.4977C24.4922 22.1212 24.6164 21.6375 24.6822 20.8316C24.7491 20.0126 24.75 18.9637 24.75 17.475V12.735Z" fill="#A3A3A3"/>
<path d="M22.5 20.25C22.5 21.4926 21.4926 22.5 20.25 22.5C19.0074 22.5 18 21.4926 18 20.25C18 19.0074 19.0074 18 20.25 18C21.4926 18 22.5 19.0074 22.5 20.25Z" fill="#A3A3A3"/>
</svg>
